<svg width="512" height="512" version="1.1" xmlns="http://www.w3.org/2000/svg" desc="Created with imagetracer.js version 1.2.6" ><path fill="rgb(0,0,0)" stroke="rgb(0,0,0)" stroke-width="1" opacity="0" d="M 160 0 L 255.5 0 L 256 0.5 L 256 32 L 320 32 L 320 0 L 352 0 L 352 160 L 511.5 160 L 512 160.5 L 512 192 L 448 192 L 448 224 L 416 224 L 416 192 L 384 192 L 384 224 L 352 224 L 352 256 L 479.5 256 L 480 255.5 L 480 224 L 512 224 L 512 288 L 448 288 L 448 320 L 512 320 L 512 352 L 480 352 L 480 384 L 512 384 L 512 480 L 448 480 L 448 512 L 416 512 L 416 448 L 480 448 L 480 416 L 384 416 L 384 512 L 288 512 L 288 480 L 352 480 L 352 448 L 288 448 L 288 352 L 192 352 L 192 384 L 256 384 L 256 480 L 192 480 L 192 512 L 160 512 L 160 352 L 0.5 352 L 0 351.5 L 0 320 L 32 320 L 32 288 L 64 288 L 64 256 L 32 256 L 32 192 L 0 192 L 0 160 L 160 160 L 160 0 Z M 192 32 L 192 96 L 256 96 L 256 128 L 288 128 L 288 96 L 320 96 L 320 64 L 225 64 L 224 64 L 224 32 L 192 32 Z M 192 128 L 192 160 L 224 160 L 224 128 L 192 128 Z M 288 160 L 288 192 L 192 192 L 192 224 L 193 224 L 320 224 L 320 160 L 288 160 Z M 64 192 L 64 224 L 96 224 L 96 192 L 64 192 Z M 128 192 L 128 256 L 97 256 L 96 257 L 96 320 L 128 320 L 128 288 L 192 288 L 192 320 L 193 320 L 256 320 L 256 288 L 224 288 L 224 256 L 160 256 L 160 192 L 128 192 Z M 288 256 L 288 320 L 320 320 L 320 256 L 288 256 Z M 352 288 L 352 320 L 384 320 L 384 384 L 416 384 L 416 288 L 352 288 Z M 320 352 L 320 416 L 352 416 L 352 352 L 320 352 Z M 192 416 L 192 448 L 224 448 L 224 416 L 192 416 Z " /><path fill="rgb(0,0,0)" stroke="rgb(0,0,0)" stroke-width="1" opacity="0" d="M 32 32 L 128 32 L 128 128 L 32 128 L 32 32 Z M 64 64 L 64 96 L 96 96 L 96 64 L 64 64 Z " /><path fill="rgb(0,0,0)" stroke="rgb(0,0,0)" stroke-width="1" opacity="0" d="M 384 32 L 480 32 L 480 128 L 384 128 L 384 32 Z M 416 64 L 416 96 L 448 96 L 448 64 L 416 64 Z " /><path fill="rgb(0,0,0)" stroke="rgb(0,0,0)" stroke-width="1" opacity="0" d="M 32 384 L 128 384 L 128 480 L 32 480 L 32 384 Z M 64 416 L 64 448 L 96 448 L 96 416 L 64 416 Z " /><path fill="rgb(0,0,0)" stroke="rgb(0,0,0)" stroke-width="1" opacity="1" d="M 0 0 L 160 0 L 160 160 L 0 160 L 0 0 Z M 32 32 L 32 128 L 128 128 L 128 32 L 32 32 Z " /><path fill="rgb(0,0,0)" stroke="rgb(0,0,0)" stroke-width="1" opacity="1" d="M 256 0 L 320 0 L 320 32 L 256 32 L 256 0 Z " /><path fill="rgb(0,0,0)" stroke="rgb(0,0,0)" stroke-width="1" opacity="1" d="M 352 0 L 512 0 L 512 160 L 352 160 L 352 0 Z M 384 32 L 384 128 L 480 128 L 480 32 L 384 32 Z " /><path fill="rgb(0,0,0)" stroke="rgb(0,0,0)" stroke-width="1" opacity="1" d="M 192 32 L 224 32 L 224 63.5 L 224.5 64 L 320 64 L 320 96 L 288 96 L 288 128 L 256 128 L 256 96 L 192 96 L 192 32 Z " /><path fill="rgb(0,0,0)" stroke="rgb(0,0,0)" stroke-width="1" opacity="1" d="M 64 64 L 96 64 L 96 96 L 64 96 L 64 64 Z " /><path fill="rgb(0,0,0)" stroke="rgb(0,0,0)" stroke-width="1" opacity="1" d="M 416 64 L 448 64 L 448 96 L 416 96 L 416 64 Z " /><path fill="rgb(0,0,0)" stroke="rgb(0,0,0)" stroke-width="1" opacity="1" d="M 192 128 L 224 128 L 224 160 L 192 160 L 192 128 Z " /><path fill="rgb(0,0,0)" stroke="rgb(0,0,0)" stroke-width="1" opacity="1" d="M 288 160 L 320 160 L 320 224 L 192.5 224 L 192 223.5 L 192 192 L 288 192 L 288 160 Z " /><path fill="rgb(0,0,0)" stroke="rgb(0,0,0)" stroke-width="1" opacity="1" d="M 0 192 L 32 192 L 32 256 L 64 256 L 64 288 L 32 288 L 32 320 L 0 320 L 0 192 Z " /><path fill="rgb(0,0,0)" stroke="rgb(0,0,0)" stroke-width="1" opacity="1" d="M 64 192 L 96 192 L 96 224 L 64 224 L 64 192 Z " /><path fill="rgb(0,0,0)" stroke="rgb(0,0,0)" stroke-width="1" opacity="1" d="M 128 192 L 160 192 L 160 256 L 224 256 L 224 288 L 256 288 L 256 320 L 192.5 320 L 192 319.5 L 192 288 L 128 288 L 128 320 L 96 320 L 96 256.5 L 96.5 256 L 128 256 L 128 192 Z " /><path fill="rgb(0,0,0)" stroke="rgb(0,0,0)" stroke-width="1" opacity="1" d="M 384 192 L 416 192 L 416 224 L 448 224 L 448 192 L 512 192 L 512 224 L 480 224 L 480 256 L 352 256 L 352 224 L 384 224 L 384 192 Z " /><path fill="rgb(0,0,0)" stroke="rgb(0,0,0)" stroke-width="1" opacity="1" d="M 288 256 L 320 256 L 320 320 L 288 320 L 288 256 Z " /><path fill="rgb(0,0,0)" stroke="rgb(0,0,0)" stroke-width="1" opacity="1" d="M 352 288 L 416 288 L 416 384 L 384 384 L 384 320 L 352 320 L 352 288 Z " /><path fill="rgb(0,0,0)" stroke="rgb(0,0,0)" stroke-width="1" opacity="1" d="M 448 288 L 512 288 L 512 320 L 448 320 L 448 288 Z " /><path fill="rgb(0,0,0)" stroke="rgb(0,0,0)" stroke-width="1" opacity="1" d="M 0 352 L 160 352 L 160 512 L 0 512 L 0 352 Z M 32 384 L 32 480 L 128 480 L 128 384 L 32 384 Z " /><path fill="rgb(0,0,0)" stroke="rgb(0,0,0)" stroke-width="1" opacity="1" d="M 192 352 L 288 352 L 288 448 L 352 448 L 352 480 L 288 480 L 288 511.5 L 287.5 512 L 192 512 L 192 480 L 256 480 L 256 384 L 192 384 L 192 352 Z " /><path fill="rgb(0,0,0)" stroke="rgb(0,0,0)" stroke-width="1" opacity="1" d="M 320 352 L 352 352 L 352 416 L 320 416 L 320 352 Z " /><path fill="rgb(0,0,0)" stroke="rgb(0,0,0)" stroke-width="1" opacity="1" d="M 480 352 L 512 352 L 512 384 L 480 384 L 480 352 Z " /><path fill="rgb(0,0,0)" stroke="rgb(0,0,0)" stroke-width="1" opacity="1" d="M 64 416 L 96 416 L 96 448 L 64 448 L 64 416 Z " /><path fill="rgb(0,0,0)" stroke="rgb(0,0,0)" stroke-width="1" opacity="1" d="M 192 416 L 224 416 L 224 448 L 192 448 L 192 416 Z " /><path fill="rgb(0,0,0)" stroke="rgb(0,0,0)" stroke-width="1" opacity="1" d="M 384 416 L 480 416 L 480 448 L 416 448 L 416 512 L 384 512 L 384 416 Z " /><path fill="rgb(0,0,0)" stroke="rgb(0,0,0)" stroke-width="1" opacity="1" d="M 448 480 L 512 480 L 512 512 L 448 512 L 448 480 Z " /></svg>